<?xml version="1.0" encoding="UTF-8"?><svg xmlns="http://www.w3.org/2000/svg" width="200" height="200" viewBox="0 0 200 200"><defs><style>.c{fill:#fff;opacity:0;}</style></defs><g id="a"><rect class="c" x="0" width="200" height="200"/></g><g id="b"><path d="M174.04,69.07c.66-3.4,.98-6.85,.98-10.31,0-29.84-25.31-54.05-56.49-54.05-18.12,0-35.1,8.28-45.71,22.49-5.22-3.91-11.59-5.94-18.29-5.94-16.49,0-30.04,12.81-30.04,28.74,0,3.44,.65,6.87,1.8,10C10.61,65.16,0,79.54,0,95.47s10.45,30.15,26.12,35.62c-.65,3.28-.98,6.72-.98,10.31,0,29.68,25.31,53.89,56.33,53.89,18.29,0,35.1-8.44,45.71-22.49,5.22,3.9,11.75,6.09,18.45,6.09,16.49,0,30.04-12.81,30.04-28.74,0-3.44-.65-6.87-1.8-10,15.35-5.31,26.12-19.68,26.12-35.62h.01c0-16.09-10.45-29.99-25.96-35.46ZM77.05,31.58c9.31-13.12,24.82-20.93,41.47-20.93,27.76,0,50.29,21.55,50.29,48.11,0,3.2-.32,6.39-.98,9.53l-45.06,37.8-44.57-19.53h-.01l-8.65-17.8,7.51-37.18Zm-22.68-4.85c5.38,0,10.45,1.57,14.69,4.69l-6.86,33.27-30.53-6.87h.01c-.98-2.5-1.47-5.31-1.47-7.97,0-12.81,10.94-23.12,24.16-23.12ZM5.88,95.47c0-13.75,9.47-26.4,23.18-30.62l33.63,7.5,7.84,16.09L27.59,125.62c-13.06-4.69-21.71-16.4-21.71-30.15Zm117.39,73.11c-9.47,13.12-24.98,21.09-41.8,21.09-27.76,0-50.45-21.71-50.45-48.27,0-3.29,.33-6.57,.98-9.69l43.93-37.96,44.73,19.53,9.96,18.12-7.35,37.18Zm22.36,4.68c-5.22,0-10.29-1.71-14.53-4.84l6.69-33.12,30.53,6.87c.98,2.5,1.47,5.16,1.47,7.97,0,12.81-10.94,23.12-24.16,23.12Zm25.31-38.11l-33.63-7.5-8.98-16.4,44.08-36.87c13.06,4.84,21.71,16.4,21.71,30.15s-9.47,26.25-23.18,30.62Z"/></g></svg>