<?xml version="1.0" encoding="UTF-8"?><svg xmlns="http://www.w3.org/2000/svg" width="200" height="200" viewBox="0 0 200 200"><defs><style>.c{fill:#fff;opacity:0;}</style></defs><g id="a"><rect class="c" x="0" width="200" height="200"/><path d="M123.13,140.06c-5.06,7.19-10.57,14.06-16.51,20.55,15.8,15.34,30.5,22.52,38.65,17.8,8.16-4.71,9.29-21.02,3.91-42.37-8.06,1.8-16.82,3.16-26.05,4.02Zm-12.38,.82c-7.17,.3-14.34,.3-21.51,0,3.56,4.65,7.16,8.96,10.75,12.89,3.59-3.93,7.18-8.24,10.75-12.89Zm47.62-74.59c25.18,7.22,41.62,19.22,41.62,33.71s-16.44,26.49-41.62,33.7c6.33,25.42,4.17,45.66-8.37,52.9-12.55,7.25-31.16-.99-50-19.18-18.84,18.19-37.46,26.43-50,19.18-12.54-7.24-14.71-27.48-8.37-52.9C16.44,126.49,0,114.49,0,100s16.44-26.49,41.62-33.7c-6.33-25.42-4.17-45.66,8.37-52.9,12.55-7.25,31.16,.99,50,19.18,18.84-18.19,37.46-26.43,50-19.18,12.54,7.24,14.71,27.48,8.37,52.9Zm-9.19-2.34c5.39-21.36,4.25-37.66-3.9-42.37-8.15-4.72-22.86,2.47-38.65,17.8,5.58,6.08,11.14,12.98,16.5,20.55,9.24,.85,17.99,2.21,26.05,4.02ZM50.82,136.05c-5.39,21.35-4.25,37.66,3.9,42.37,8.15,4.72,22.86-2.47,38.65-17.8-5.93-6.49-11.44-13.36-16.5-20.55-8.76-.78-17.46-2.12-26.05-4.02ZM89.25,59.11c7.17-.3,14.34-.3,21.51,0-3.4-4.45-6.98-8.74-10.75-12.88-3.59,3.93-7.18,8.24-10.75,12.89h0Zm-12.38,.81c5.06-7.2,10.58-14.06,16.52-20.55-15.81-15.34-30.52-22.52-38.66-17.8-8.16,4.71-9.29,21.02-3.91,42.37,8.06-1.8,16.82-3.16,26.05-4.02Zm41.03,71.06c6.73-9.87,12.71-20.23,17.89-30.99-5.18-10.76-11.16-21.12-17.89-30.99-11.91-.89-23.88-.89-35.79,0-6.73,9.87-12.71,20.23-17.89,30.99,5.18,10.76,11.16,21.12,17.89,30.99,11.91,.89,23.88,.89,35.79,0Zm12.13-1.24c5.81-.76,11.34-1.73,16.54-2.87-1.7-5.33-3.63-10.59-5.78-15.75-3.33,6.35-6.91,12.56-10.75,18.61h0Zm-60.06-59.51c-5.81,.76-11.34,1.73-16.54,2.87,1.61,5.06,3.53,10.34,5.78,15.75,3.33-6.35,6.91-12.56,10.75-18.61h0Zm-16.54,56.63c5.2,1.14,10.72,2.11,16.54,2.87-3.84-6.05-7.43-12.26-10.75-18.61-2.25,5.4-4.18,10.68-5.78,15.74Zm-9.24-2.32c2.47-7.88,5.67-16.14,9.54-24.57-3.87-8.43-7.08-16.69-9.54-24.57-21.18,6.02-34.74,15.16-34.74,24.57s13.56,18.55,34.74,24.57Zm102.37-51.45c-5.2-1.14-10.72-2.11-16.54-2.87,3.84,6.05,7.43,12.26,10.75,18.61,2.25-5.4,4.18-10.68,5.78-15.74Zm9.24,2.32c-2.47,7.88-5.67,16.14-9.54,24.57,3.87,8.43,7.08,16.69,9.54,24.57,21.18-6.02,34.74-15.16,34.74-24.57s-13.56-18.55-34.74-24.57Zm-55.81,42.34c-9.81,0-17.76-7.95-17.76-17.76s7.95-17.76,17.76-17.76h0c9.81,0,17.76,7.95,17.76,17.76s-7.95,17.76-17.76,17.76Z"/></g><g id="b"/></svg>