<svg id="Calque_1" data-name="Calque 1" xmlns="http://www.w3.org/2000/svg" width="251" height="405" viewBox="0 0 251 405"><rect width="251" height="405" style="fill:#fba919"/><rect x="44" y="117.5" width="163" height="152" style="fill:#2883c6;stroke:#010101;stroke-miterlimit:10;stroke-width:7px"/><path d="M44.1,220.79s38.42-83.63,161.82-22.57v72H44.1Z" style="fill:#fba919;stroke:#010101;stroke-miterlimit:10;stroke-width:7px"/><path d="M106.2,230.59c.67,13.71-6.29,25.19-15.55,25.64s-17.3-10.3-18-24S79,207,88.23,206.58,105.53,216.88,106.2,230.59Z" style="fill:#fff;stroke:#010101;stroke-miterlimit:10;stroke-width:7px"/><path d="M105.33,220.68c.46,9.38-5.87,17.3-14.12,17.7s-15.33-6.87-15.78-16.24,5.86-17.3,14.12-17.7S104.87,211.31,105.33,220.68Z" style="fill:#010101"/><path d="M162.9,221.7c.67,13.71-6.3,25.19-15.55,25.64s-17.31-10.3-18-24,6.29-25.19,15.55-25.64S162.23,208,162.9,221.7Z" style="fill:#fff;stroke:#010101;stroke-miterlimit:10;stroke-width:7px"/><path d="M160,211.54c.46,9.37-5.87,17.29-14.12,17.7s-15.33-6.87-15.78-16.25,5.86-17.29,14.12-17.7S159.51,202.16,160,211.54Z" style="fill:#010101"/><line x1="117.63" y1="247.08" x2="118.54" y2="267.01" style="fill:none;stroke:#010101;stroke-linecap:round;stroke-miterlimit:10;stroke-width:7px"/><path d="M158,133.5c-.32,3.09,2.87,6.52,2.23,9.27-.31,3.09-4.15,3.78-7,5.84,4.15,1,8.3-1,10.22,2.74,1.28,2.41.64,8.25,1.59,11.34,2.88-3.78,2.88-11.34,7.35-13.4,2.55-1.37,8.3.35,11.17,0-2.87-2.74-7-4.12-10.53-5.49a17.49,17.49,0,0,0,1.59-12c-2.55,1-5.21,6.34-8.08,6.68-2.56.35-6.07-4.8-8.62-6.18" style="fill:#fff"/><path d="M156.27,133.5c.06,2.39,1.33,4.16,1.79,6.41.89,4.35-2.82,5.32-5.71,7.19-1.16.74-1.16,2.92.42,3.19,3.55.63,8.24-.82,9.52,3.42.91,3,.34,6.38,1.07,9.44a1.77,1.77,0,0,0,3.2.42c2.05-3.08,2.45-6.79,4.18-10,2.63-4.88,8.36-2.33,12.82-2.53,1.4-.06,2.46-1.94,1.24-3-3.35-2.86-7.24-4.38-11.31-5.95l1,2.57a20.47,20.47,0,0,0,1.77-13.37,1.76,1.76,0,0,0-2.57-1c-2.35,1.31-3.63,4.47-5.91,5.56-3.38,1.61-6.6-3.48-9-5.06-1.89-1.23-3.65,1.8-1.77,3,2.9,1.89,5.59,6.62,9.51,6.42s5.83-5.17,9-6.92l-2.57-1a16.63,16.63,0,0,1-1.42,10.68,1.78,1.78,0,0,0,1,2.57c3.48,1.34,6.89,2.59,9.77,5l1.23-3c-4.57.2-9.8-2-13.69,1.37-3.72,3.23-3.72,9-6.34,12.9l3.2.41c-.93-4,.31-9.43-2.49-12.8-2.6-3.14-7-1.89-10.54-2.5l.41,3.2c2.59-1.67,6.3-2.73,7.56-5.83,1.53-3.81-1.81-7.09-1.9-10.79-.06-2.25-3.56-2.26-3.5,0Z" style="fill:#fff"/><line x1="95.16" y1="45.92" x2="94.79" y2="95.93" style="fill:none;stroke:#231f20;stroke-miterlimit:10;stroke-width:7px"/><line x1="89.97" y1="92.96" x2="111.82" y2="92.59" style="fill:none;stroke:#231f20;stroke-miterlimit:10;stroke-width:7px"/><line x1="84.3" y1="72.05" x2="118.3" y2="72.05" style="fill:none;stroke:#231f20;stroke-miterlimit:10;stroke-width:7px"/><line x1="88.68" y1="50.44" x2="114.3" y2="49.95" style="fill:none;stroke:#231f20;stroke-miterlimit:10;stroke-width:7px"/><line x1="167.84" y1="47.62" x2="167.84" y2="96.62" style="fill:none;stroke:#231f20;stroke-miterlimit:10;stroke-width:7px"/><line x1="160.84" y1="68.62" x2="201.84" y2="68.62" style="fill:none;stroke:#231f20;stroke-miterlimit:10;stroke-width:7px"/><line x1="186.84" y1="41.62" x2="186.84" y2="101.37" style="fill:none;stroke:#231f20;stroke-miterlimit:10;stroke-width:7px"/><line x1="49.29" y1="51.81" x2="90.38" y2="50.38" style="fill:none;stroke:#231f20;stroke-miterlimit:10;stroke-width:7px"/><line x1="69.84" y1="45.12" x2="69.84" y2="99.12" style="fill:none;stroke:#231f20;stroke-miterlimit:10;stroke-width:7px"/><path d="M153.23,51.81c-45.34-19-31.93,69,5.2,37.23" style="fill:none;stroke:#231f20;stroke-miterlimit:10;stroke-width:7px"/><line x1="79.27" y1="299.75" x2="113.75" y2="298.31" style="fill:none;stroke:#fff;stroke-miterlimit:10;stroke-width:6.410995781421661px"/><line x1="93.18" y1="291.06" x2="93.18" y2="345.06" style="fill:none;stroke:#fff;stroke-miterlimit:10;stroke-width:7px"/><line x1="52.95" y1="291.86" x2="52.53" y2="348.53" style="fill:none;stroke:#fff;stroke-miterlimit:10;stroke-width:7.93346095085144px"/><line x1="47.07" y1="345.17" x2="71.84" y2="344.75" style="fill:none;stroke:#fff;stroke-miterlimit:10;stroke-width:7.93346095085144px"/><line x1="40.64" y1="321.47" x2="79.17" y2="321.47" style="fill:none;stroke:#fff;stroke-miterlimit:10;stroke-width:7.93346095085144px"/><line x1="45.3" y1="294.67" x2="73.64" y2="294.67" style="fill:none;stroke:#fff;stroke-miterlimit:10;stroke-width:7.93346095085144px"/><line x1="123.17" y1="297.46" x2="123.17" y2="349.61" style="fill:none;stroke:#fff;stroke-miterlimit:10;stroke-width:8.020993828773499px"/><line x1="107.14" y1="317.53" x2="154.12" y2="317.53" style="fill:none;stroke:#fff;stroke-miterlimit:10;stroke-width:8.020993828773499px"/><line x1="144.94" y1="286.59" x2="144.94" y2="345.03" style="fill:none;stroke:#fff;stroke-miterlimit:10;stroke-width:8.020993828773499px"/><line x1="165.18" y1="294.46" x2="165.18" y2="346.05" style="fill:none;stroke:#fff;stroke-miterlimit:10;stroke-width:6.4978878224302274px"/><path d="M206.1,299.35c-41.94-15.55-34,59.84,2.54,38.25" style="fill:none;stroke:#fff;stroke-miterlimit:10;stroke-width:6.77271175384522px"/></svg>