<svg id="Calque_1" data-name="Calque 1" xmlns="http://www.w3.org/2000/svg" width="170" height="159.75" viewBox="0 0 170 159.75"><rect x="3.5" y="3.5" width="163" height="152" style="fill:#2883c6;stroke:#010101;stroke-miterlimit:10;stroke-width:7px"/><path d="M3.6,106.79S42,23.16,165.42,84.22v72H3.6Z" style="fill:#fba919;stroke:#010101;stroke-miterlimit:10;stroke-width:7px"/><path d="M65.7,116.59c.67,13.71-6.29,25.19-15.55,25.64s-17.3-10.3-18-24S38.47,93,47.73,92.58,65,102.88,65.7,116.59Z" style="fill:#fff;stroke:#010101;stroke-miterlimit:10;stroke-width:7px"/><path d="M64.83,106.68c.46,9.38-5.87,17.3-14.12,17.7s-15.33-6.87-15.78-16.24,5.86-17.3,14.12-17.7S64.37,97.31,64.83,106.68Z" style="fill:#010101"/><path d="M122.4,107.7c.67,13.71-6.3,25.19-15.55,25.64s-17.31-10.3-18-24,6.29-25.19,15.55-25.64S121.73,94,122.4,107.7Z" style="fill:#fff;stroke:#010101;stroke-miterlimit:10;stroke-width:7px"/><path d="M119.47,97.54c.46,9.37-5.87,17.29-14.12,17.7S90,108.37,89.57,99s5.86-17.29,14.12-17.7S119,88.16,119.47,97.54Z" style="fill:#010101"/><line x1="77.13" y1="133.08" x2="78.04" y2="153.01" style="fill:none;stroke:#010101;stroke-linecap:round;stroke-miterlimit:10;stroke-width:7px"/><path d="M117.52,19.5c-.32,3.09,2.87,6.52,2.23,9.27-.31,3.09-4.15,3.78-7,5.84,4.15,1,8.3-1,10.22,2.74,1.28,2.41.64,8.25,1.59,11.34,2.88-3.78,2.88-11.34,7.35-13.4,2.55-1.37,8.3.35,11.17,0-2.87-2.74-7-4.12-10.53-5.49a17.49,17.49,0,0,0,1.59-12c-2.55,1-5.21,6.34-8.08,6.68-2.56.35-6.07-4.8-8.62-6.18" style="fill:#fff"/><path d="M115.77,19.5c.06,2.39,1.33,4.16,1.79,6.41.89,4.35-2.82,5.32-5.71,7.19-1.16.74-1.16,2.92.42,3.19,3.55.63,8.24-.82,9.52,3.42.91,3,.34,6.38,1.07,9.44a1.77,1.77,0,0,0,3.2.42c2.05-3.08,2.45-6.79,4.18-10,2.63-4.88,8.36-2.33,12.82-2.53,1.4-.06,2.46-1.94,1.24-3-3.35-2.86-7.24-4.38-11.31-6l1,2.57a20.47,20.47,0,0,0,1.77-13.37,1.76,1.76,0,0,0-2.57-1c-2.35,1.31-3.63,4.47-5.91,5.56-3.38,1.61-6.6-3.48-9-5.06-1.89-1.23-3.65,1.8-1.77,3,2.9,1.89,5.59,6.62,9.51,6.42s5.83-5.17,9-6.92l-2.57-1.05A16.63,16.63,0,0,1,131,28.92a1.78,1.78,0,0,0,1,2.57c3.48,1.34,6.89,2.59,9.77,5l1.23-3c-4.57.2-9.8-2-13.69,1.37-3.72,3.23-3.72,9-6.34,12.9l3.2.41c-.93-4,.31-9.43-2.49-12.8-2.6-3.14-7-1.89-10.54-2.5l.41,3.2c2.59-1.67,6.3-2.73,7.56-5.83,1.53-3.81-1.81-7.09-1.9-10.79-.06-2.25-3.56-2.26-3.5,0Z" style="fill:#fff"/></svg>