<?xml version="1.0" encoding="UTF-8"?><svg xmlns="http://www.w3.org/2000/svg" width="200" height="200" viewBox="0 0 200 200"><defs><style>.c,.d{fill:#fff;}.d{opacity:0;}</style></defs><g id="a"><rect class="d" x="0" width="200" height="200"/><g><polygon points="0 100 0 200 100 200 200 200 200 100 200 0 100 0 0 0 0 100"/><path class="c" d="M44.23,100.66l-.06,8.19h26.03v73.97h18.41V108.85h26.03v-8.03c0-4.44-.1-8.16-.22-8.25-.1-.13-15.94-.19-35.14-.16l-34.95,.1-.1,8.16Z"/><path class="c" d="M161.38,92.27c5.08,1.27,8.95,3.52,12.51,7.21,1.84,1.97,4.57,5.56,4.79,6.41,.06,.25-8.63,6.1-13.9,9.37-.19,.13-.95-.7-1.81-1.97-2.57-3.75-5.27-5.37-9.4-5.65-6.06-.41-9.97,2.76-9.94,8.06,0,1.56,.22,2.48,.86,3.75,1.33,2.76,3.81,4.41,11.59,7.78,14.32,6.16,20.44,10.22,24.25,16,4.25,6.44,5.21,16.73,2.32,24.38-3.17,8.32-11.05,13.97-22.13,15.84-3.43,.6-11.56,.51-15.24-.16-8.03-1.43-15.65-5.4-20.35-10.6-1.84-2.03-5.43-7.33-5.21-7.71,.1-.13,.92-.63,1.84-1.17,.89-.51,4.25-2.44,7.43-4.29l5.75-3.33,1.21,1.78c1.68,2.57,5.37,6.1,7.59,7.27,6.38,3.37,15.14,2.89,19.46-.98,1.84-1.68,2.6-3.43,2.6-6,0-2.32-.29-3.33-1.49-5.08-1.56-2.22-4.73-4.1-13.75-8-10.32-4.44-14.76-7.21-18.83-11.59-2.35-2.54-4.57-6.6-5.49-10-.76-2.83-.95-9.9-.35-12.76,2.13-9.97,9.65-16.92,20.51-18.98,3.52-.67,11.71-.41,15.17,.44Z"/></g></g><g id="b"/></svg>