<svg id="Calque_1" data-name="Calque 1" xmlns="http://www.w3.org/2000/svg" width="182.5" height="206.64" viewBox="0 0 182.5 206.64"><path d="M139.27,37.51V77.82a43.47,43.47,0,1,0,0,74.53v6.2h21.09V19.06Zm-22.38,100a22.38,22.38,0,1,1,22.38-22.37A22.38,22.38,0,0,1,116.89,137.46Z" style="fill:#19232C"/><line x1="182.17" y1="0.38" x2="0.33" y2="158" style="fill:none;stroke:#19232C;stroke-miterlimit:10"/><path d="M8.09,191.76a4.36,4.36,0,0,1,1.55,1,4.42,4.42,0,0,1,1,1.61,5.91,5.91,0,0,1,.38,2.17,3.71,3.71,0,0,1,0,.53,1.17,1.17,0,0,1-.09.31.44.44,0,0,1-.2.18.73.73,0,0,1-.31,0h-7a4,4,0,0,0,1,2.57A2.91,2.91,0,0,0,6.5,201a3.36,3.36,0,0,0,1.12-.16,4.84,4.84,0,0,0,.84-.35c.25-.14.47-.22.65-.33a.82.82,0,0,1,.5-.16.62.62,0,0,1,.31.07.47.47,0,0,1,.2.17l.8,1a4.81,4.81,0,0,1-1,.9,4.73,4.73,0,0,1-1.17.58,9.54,9.54,0,0,1-1.26.29,8.83,8.83,0,0,1-1.24.09A5.87,5.87,0,0,1,4,202.73a5.16,5.16,0,0,1-1.77-1.17,5.39,5.39,0,0,1-1.19-1.9A7.37,7.37,0,0,1,.66,197,6.19,6.19,0,0,1,1,194.86a5.08,5.08,0,0,1,1.08-1.79,5,5,0,0,1,1.7-1.2,6,6,0,0,1,2.3-.44A5.7,5.7,0,0,1,8.09,191.76Zm-3.78,2.3a3.43,3.43,0,0,0-.86,1.9H8.57a3.54,3.54,0,0,0-.15-1,2.24,2.24,0,0,0-.44-.82,1.9,1.9,0,0,0-.75-.55,2.76,2.76,0,0,0-1.07-.22A2.52,2.52,0,0,0,4.31,194.06Z" style="fill:#19232C"/><path d="M31.06,201.65V203h-4.4v-7.21a2.42,2.42,0,0,0-.46-1.63,1.69,1.69,0,0,0-1.39-.56,2.28,2.28,0,0,0-.8.16,1.7,1.7,0,0,0-.62.4,2,2,0,0,0-.42.68,2.56,2.56,0,0,0-.15,1v5l.64.11a2.22,2.22,0,0,1,.33.07l.13,0a.63.63,0,0,1,.55.69V203h-4.4v-7.21a2.49,2.49,0,0,0-.46-1.66,1.7,1.7,0,0,0-1.35-.53,2.13,2.13,0,0,0-1.1.29,3.51,3.51,0,0,0-.95.82v6.1l.64.11a2.22,2.22,0,0,1,.33.07.4.4,0,0,0,.13,0,.63.63,0,0,1,.55.69V203h-6v-1.3a.63.63,0,0,1,.55-.69.7.7,0,0,1,.13,0c.07,0,.18-.05.33-.07l.64-.11v-7l-.64-.11a2.87,2.87,0,0,0-.33-.07.7.7,0,0,1-.13,0,.66.66,0,0,1-.58-.69v-1.3h3.36a.67.67,0,0,1,.69.51L16,193a4.54,4.54,0,0,1,.62-.62,5.35,5.35,0,0,1,.7-.47,4.79,4.79,0,0,1,.8-.33,3.12,3.12,0,0,1,.93-.11,2.64,2.64,0,0,1,1.77.58,3.54,3.54,0,0,1,1,1.54,3.33,3.33,0,0,1,.66-1,4.09,4.09,0,0,1,.86-.64,3.9,3.9,0,0,1,1-.38,5,5,0,0,1,1.08-.13,4.35,4.35,0,0,1,1.66.29,3.18,3.18,0,0,1,1.24.84,3.84,3.84,0,0,1,.75,1.35,5.74,5.74,0,0,1,.26,1.83v5l.65.11c.15,0,.26.07.33.07l.13,0A.63.63,0,0,1,31.06,201.65Z" style="fill:#19232C"/><path d="M51.19,201.65V203h-4.4v-7.21a2.42,2.42,0,0,0-.47-1.63,1.68,1.68,0,0,0-1.39-.56,2.33,2.33,0,0,0-.8.16,1.7,1.7,0,0,0-.62.4,2.38,2.38,0,0,0-.42.68,2.56,2.56,0,0,0-.15,1v5l.64.11a1.75,1.75,0,0,1,.33.07l.14,0a.64.64,0,0,1,.55.69V203H40.2v-7.21a2.49,2.49,0,0,0-.47-1.66,1.69,1.69,0,0,0-1.34-.53,2.17,2.17,0,0,0-1.11.29,3.84,3.84,0,0,0-1,.82v6.1l.64.11a1.75,1.75,0,0,1,.33.07l.13,0a.64.64,0,0,1,.56.69V203H31.93v-1.3a.64.64,0,0,1,.55-.69l.13,0c.07,0,.18-.05.34-.07l.64-.11v-7l-.64-.11a3.43,3.43,0,0,0-.34-.07l-.13,0a.66.66,0,0,1-.57-.69v-1.3h3.36a.67.67,0,0,1,.68.51l.18.84a5.18,5.18,0,0,1,.62-.62,4.85,4.85,0,0,1,.71-.47,4.68,4.68,0,0,1,.79-.33,3.12,3.12,0,0,1,.93-.11A2.61,2.61,0,0,1,41,192a3.46,3.46,0,0,1,1,1.54,3.77,3.77,0,0,1,.66-1,4.68,4.68,0,0,1,.86-.64,4,4,0,0,1,1-.38,5.07,5.07,0,0,1,1.09-.13,4.3,4.3,0,0,1,1.65.29,3.18,3.18,0,0,1,1.24.84,3.69,3.69,0,0,1,.75,1.35,5.73,5.73,0,0,1,.27,1.83v5l.64.11c.15,0,.27.07.33.07a.7.7,0,0,1,.13,0A.64.64,0,0,1,51.19,201.65Z" style="fill:#19232C"/><path d="M62.73,201.62v1.31H60.12a1.25,1.25,0,0,1-.62-.11.74.74,0,0,1-.33-.49l-.24-.79a8.35,8.35,0,0,1-.84.68,5.73,5.73,0,0,1-.86.49,4.58,4.58,0,0,1-.93.29,6.23,6.23,0,0,1-1.11.11,4.2,4.2,0,0,1-1.32-.2,2.78,2.78,0,0,1-1-.58,2.82,2.82,0,0,1-.69-1A3.59,3.59,0,0,1,51.9,200a2.77,2.77,0,0,1,.33-1.28,3,3,0,0,1,1.13-1.13,7.3,7.3,0,0,1,2.08-.84,13.49,13.49,0,0,1,3.25-.33v-.66a2.62,2.62,0,0,0-.49-1.71,1.7,1.7,0,0,0-1.39-.55,3.18,3.18,0,0,0-1.11.16,5.05,5.05,0,0,0-.77.35c-.22.13-.42.22-.6.33a1.12,1.12,0,0,1-.6.16.87.87,0,0,1-.48-.14,1,1,0,0,1-.31-.35l-.51-.86a6.71,6.71,0,0,1,4.71-1.81,4.64,4.64,0,0,1,1.79.33,3.81,3.81,0,0,1,2.14,2.3,5.46,5.46,0,0,1,.27,1.76v5l.6.11.24.05A.63.63,0,0,1,62.73,201.62Zm-4-3.51a10.14,10.14,0,0,0-2,.15,6.43,6.43,0,0,0-1.31.4,1.61,1.61,0,0,0-.68.53,1.41,1.41,0,0,0,.22,1.73,1.86,1.86,0,0,0,1.1.31,4.71,4.71,0,0,0,.78-.07,2.2,2.2,0,0,0,.68-.24,4,4,0,0,0,.6-.38,5.7,5.7,0,0,0,.6-.53Z" style="fill:#19232C"/><path d="M76.8,201.65V203H72.4v-7.21a2.51,2.51,0,0,0-.49-1.61,1.77,1.77,0,0,0-1.44-.58,2.7,2.7,0,0,0-1.32.34,4.67,4.67,0,0,0-1.18.86v6l.65.11a2.22,2.22,0,0,1,.33.07.4.4,0,0,0,.13,0,.63.63,0,0,1,.55.69V203H63.57v-1.3a.64.64,0,0,1,.56-.69.7.7,0,0,1,.13,0,2.22,2.22,0,0,1,.33-.07l.64-.11v-7l-.64-.11a2.87,2.87,0,0,0-.33-.07l-.13,0a.64.64,0,0,1-.56-.69v-1.3h3.34a.67.67,0,0,1,.69.51l.2.88a4.83,4.83,0,0,1,.71-.64,4.16,4.16,0,0,1,.81-.49,4.47,4.47,0,0,1,.91-.33,5.94,5.94,0,0,1,1.06-.11,4,4,0,0,1,1.66.31,3.11,3.11,0,0,1,1.19.89,4.07,4.07,0,0,1,.73,1.37,5.34,5.34,0,0,1,.25,1.74v5l.66.11c.15,0,.26.07.33.07a.7.7,0,0,1,.13,0A.64.64,0,0,1,76.8,201.65Z" style="fill:#19232C"/><path d="M90.71,201.65V203H87.37a.67.67,0,0,1-.69-.51l-.2-.9a8.88,8.88,0,0,1-.73.66,4,4,0,0,1-.79.49A6.36,6.36,0,0,1,84,203a5.62,5.62,0,0,1-1,.11,4.35,4.35,0,0,1-1.66-.31,3.41,3.41,0,0,1-1.19-.91,3.66,3.66,0,0,1-.73-1.35,5.94,5.94,0,0,1-.25-1.74v-5c-1-.18-1-.18-1.12-.2a.64.64,0,0,1-.56-.69v-1.3h4.4v7.21a2.51,2.51,0,0,0,.49,1.61,1.75,1.75,0,0,0,1.44.55,3,3,0,0,0,1.32-.31,4.23,4.23,0,0,0,1.18-.86v-6c-.93-.16-.93-.18-1.11-.2a.63.63,0,0,1-.55-.69v-1.3h4.4v9.15c1,.18.93.18,1.1.2A.64.64,0,0,1,90.71,201.65Z" style="fill:#19232C"/><path d="M98.89,191.76a4.27,4.27,0,0,1,1.55,1,4.42,4.42,0,0,1,1,1.61,5.91,5.91,0,0,1,.38,2.17,3.71,3.71,0,0,1,0,.53,1.17,1.17,0,0,1-.09.31.44.44,0,0,1-.2.18.73.73,0,0,1-.31,0h-7a4,4,0,0,0,.95,2.57,2.91,2.91,0,0,0,2.17.82,3.42,3.42,0,0,0,1.13-.16,5.6,5.6,0,0,0,.84-.35c.24-.14.46-.22.64-.33a.83.83,0,0,1,.51-.16.58.58,0,0,1,.3.07.47.47,0,0,1,.2.17l.8,1a4.81,4.81,0,0,1-1,.9,4.73,4.73,0,0,1-1.17.58,9.54,9.54,0,0,1-1.26.29,8.83,8.83,0,0,1-1.24.09,5.87,5.87,0,0,1-2.19-.38,5.16,5.16,0,0,1-1.77-1.17,5.54,5.54,0,0,1-1.19-1.9,7.37,7.37,0,0,1-.42-2.63,6.19,6.19,0,0,1,.38-2.17,5.23,5.23,0,0,1,1.08-1.79,5,5,0,0,1,1.7-1.2,6,6,0,0,1,2.3-.44A5.7,5.7,0,0,1,98.89,191.76Zm-3.78,2.3a3.43,3.43,0,0,0-.86,1.9h5.13a3.54,3.54,0,0,0-.16-1,2.24,2.24,0,0,0-.44-.82,1.9,1.9,0,0,0-.75-.55,2.75,2.75,0,0,0-1.06-.22A2.52,2.52,0,0,0,95.11,194.06Z" style="fill:#19232C"/><path d="M108.66,201.65V203h-6.08v-1.3a.64.64,0,0,1,.56-.69l.13,0a2.22,2.22,0,0,1,.33-.07l.66-.11v-12l-.66-.11c-.15,0-.26-.06-.33-.06a.49.49,0,0,1-.13,0,.64.64,0,0,1-.56-.68v-1.31H107v14.24l.67.11a2.22,2.22,0,0,1,.33.07l.13,0A.63.63,0,0,1,108.66,201.65Z" style="fill:#19232C"/><path d="M126.47,202.91h-3.23a.72.72,0,0,1-.44-.14.55.55,0,0,1-.25-.37l-.22-1a5.59,5.59,0,0,1-1.57,1.26,4.29,4.29,0,0,1-2.1.49,3.49,3.49,0,0,1-1.68-.38,4.08,4.08,0,0,1-1.33-1.13,5.34,5.34,0,0,1-.86-1.81,9.34,9.34,0,0,1-.31-2.48,8,8,0,0,1,.33-2.34,5.63,5.63,0,0,1,1-1.88,4.67,4.67,0,0,1,1.52-1.24,4.29,4.29,0,0,1,2-.46,4,4,0,0,1,1.63.31,4.1,4.1,0,0,1,1.2.79v-3.78l-.65-.11c-.15,0-.26-.06-.33-.06a.8.8,0,0,1-.68-.71v-1.31h4.4v14.22l.57.09.29.06.13,0a.64.64,0,0,1,.56.68Zm-4.27-8.4a2.75,2.75,0,0,0-1-.8,3,3,0,0,0-1.19-.24,2.48,2.48,0,0,0-1.11.24,2.33,2.33,0,0,0-.86.71,3.65,3.65,0,0,0-.53,1.19,6.62,6.62,0,0,0-.18,1.7,7.49,7.49,0,0,0,.16,1.7,3.17,3.17,0,0,0,.46,1.11,1.73,1.73,0,0,0,.71.64,2.37,2.37,0,0,0,1,.2,2.77,2.77,0,0,0,1.46-.35,4.62,4.62,0,0,0,1.13-1Z" style="fill:#19232C"/><path d="M134.58,191.76a4.27,4.27,0,0,1,1.55,1,4.57,4.57,0,0,1,1,1.61,6.13,6.13,0,0,1,.37,2.17,3.71,3.71,0,0,1,0,.53.89.89,0,0,1-.09.31.39.39,0,0,1-.2.18.73.73,0,0,1-.31,0h-7a4,4,0,0,0,.95,2.57A2.93,2.93,0,0,0,133,201a3.42,3.42,0,0,0,1.13-.16,5.6,5.6,0,0,0,.84-.35c.24-.14.46-.22.64-.33a.85.85,0,0,1,.51-.16.64.64,0,0,1,.31.07.54.54,0,0,1,.2.17l.79,1a4.81,4.81,0,0,1-1,.9,4.73,4.73,0,0,1-1.17.58A9.54,9.54,0,0,1,134,203a8.83,8.83,0,0,1-1.24.09,5.78,5.78,0,0,1-2.18-.38,5.07,5.07,0,0,1-1.77-1.17,5.41,5.41,0,0,1-1.2-1.9,7.6,7.6,0,0,1-.42-2.63,6.42,6.42,0,0,1,.38-2.17,5.23,5.23,0,0,1,1.08-1.79,5,5,0,0,1,1.7-1.2,6,6,0,0,1,2.3-.44A5.7,5.7,0,0,1,134.58,191.76Zm-3.78,2.3a3.43,3.43,0,0,0-.86,1.9h5.13a3.54,3.54,0,0,0-.16-1,2.11,2.11,0,0,0-.44-.82,1.9,1.9,0,0,0-.75-.55,2.71,2.71,0,0,0-1.06-.22A2.52,2.52,0,0,0,130.8,194.06Z" style="fill:#19232C"/><path d="M157.56,201.65V203h-4.4v-7.21a2.42,2.42,0,0,0-.47-1.63,1.68,1.68,0,0,0-1.39-.56,2.33,2.33,0,0,0-.8.16,1.7,1.7,0,0,0-.62.4,2.18,2.18,0,0,0-.42.68,2.56,2.56,0,0,0-.15,1v5l.64.11a1.75,1.75,0,0,1,.33.07.45.45,0,0,0,.14,0,.64.64,0,0,1,.55.69V203h-4.4v-7.21a2.49,2.49,0,0,0-.47-1.66,1.69,1.69,0,0,0-1.34-.53,2.17,2.17,0,0,0-1.11.29,3.84,3.84,0,0,0-1,.82v6.1l.64.11a2.22,2.22,0,0,1,.33.07l.13,0a.64.64,0,0,1,.56.69V203H138.3v-1.3a.64.64,0,0,1,.55-.69l.13,0c.07,0,.18-.05.34-.07l.64-.11v-7l-.64-.11a3.43,3.43,0,0,0-.34-.07l-.13,0a.66.66,0,0,1-.57-.69v-1.3h3.36a.67.67,0,0,1,.68.51l.18.84a5.18,5.18,0,0,1,.62-.62,4.85,4.85,0,0,1,.71-.47,4.36,4.36,0,0,1,.79-.33,3.12,3.12,0,0,1,.93-.11,2.62,2.62,0,0,1,1.77.58,3.46,3.46,0,0,1,1,1.54,3.77,3.77,0,0,1,.66-1,4.37,4.37,0,0,1,.86-.64,4,4,0,0,1,1-.38,5.06,5.06,0,0,1,1.08-.13,4.31,4.31,0,0,1,1.66.29,3.18,3.18,0,0,1,1.24.84,3.69,3.69,0,0,1,.75,1.35,5.73,5.73,0,0,1,.27,1.83v5l.64.11c.15,0,.26.07.33.07a.7.7,0,0,1,.13,0A.64.64,0,0,1,157.56,201.65Z" style="fill:#19232C"/><path d="M165.74,191.76a4.27,4.27,0,0,1,1.55,1,4.57,4.57,0,0,1,1,1.61,6.13,6.13,0,0,1,.37,2.17,3.71,3.71,0,0,1,0,.53.89.89,0,0,1-.09.31.39.39,0,0,1-.2.18.73.73,0,0,1-.31,0h-7a4,4,0,0,0,.95,2.57,2.93,2.93,0,0,0,2.17.82,3.42,3.42,0,0,0,1.13-.16,5.6,5.6,0,0,0,.84-.35c.24-.14.46-.22.64-.33a.83.83,0,0,1,.51-.16.64.64,0,0,1,.31.07.63.63,0,0,1,.2.17l.79,1a4.81,4.81,0,0,1-1,.9,4.73,4.73,0,0,1-1.17.58,9.54,9.54,0,0,1-1.26.29,8.83,8.83,0,0,1-1.24.09,5.87,5.87,0,0,1-2.19-.38,5,5,0,0,1-1.76-1.17,5.41,5.41,0,0,1-1.2-1.9,7.37,7.37,0,0,1-.42-2.63,6.19,6.19,0,0,1,.38-2.17,5.23,5.23,0,0,1,1.08-1.79,5,5,0,0,1,1.7-1.2,6,6,0,0,1,2.3-.44A5.7,5.7,0,0,1,165.74,191.76Zm-3.78,2.3a3.43,3.43,0,0,0-.86,1.9h5.13a3.54,3.54,0,0,0-.16-1,2.24,2.24,0,0,0-.44-.82,1.9,1.9,0,0,0-.75-.55,2.71,2.71,0,0,0-1.06-.22A2.52,2.52,0,0,0,162,194.06Z" style="fill:#19232C"/><path d="M181.84,191.61v1.3a.64.64,0,0,1-.55.69c-.18,0-.11,0-1,.2L175,206.07a1,1,0,0,1-.33.44.88.88,0,0,1-.58.13h-2l2.12-4.53-3.65-8.31c-.93-.16-.86-.18-1-.2a.64.64,0,0,1-.55-.69v-1.3h5.53v1.3a.64.64,0,0,1-.56.69l-.53.09,1.79,4.31a4.69,4.69,0,0,1,.2.6,6.06,6.06,0,0,1,.16.61c.06-.22.13-.42.2-.61a4.84,4.84,0,0,1,.22-.6l1.66-4.27c-.58-.11-.62-.11-.76-.13a.64.64,0,0,1-.55-.69v-1.3h5.53Z" style="fill:#19232C"/></svg>
